# xmcd
#
# Track frame offsets: 
#        150
#        14538
#        26676
#        38139
#        52074
#        63105
#        74157
#        86672
#        98901
#        107974
#        123714
#        135699
#        151348
#
# Disc length: 2145 seconds
#
# Revision: 0
# Processed by: cddbd v1.5PL3 Copyright (c) Steve Scherf et al.
# Submitted via: ExactAudioCopy v0.95a5
#
DISCID=bc085f0d
DTITLE=Palms Bluegrass Band - Live Vol.-2
DYEAR=1900
DGENRE=Bluegrass
TTITLE0=Just Suppose
TTITLE1=Love Of The Mountain
TTITLE2=Gravel Yard
TTITLE3=Dear Old Dixie
TTITLE4=I Wounder Where You Are Tonight
TTITLE5=Blue Ridge Mountain Home
TTITLE6=Beneath Still Waters
TTITLE7=Orange Blossom Special
TTITLE8=I'm Waiting
TTITLE9=You Don't Know My Mind
TTITLE10=I'll Go Steppin Too
TTITLE11=Old Joe Clark
TTITLE12=I May Be A Little Bit Tight Tonight
EXTD=
EXTT0=
EXTT1=
EXTT2=
EXTT3=
EXTT4=
EXTT5=
EXTT6=
EXTT7=
EXTT8=
EXTT9=
EXTT10=
EXTT11=
EXTT12=
PLAYORDER=
